<?xml version="1.0" standalone="no"?>
<!DOCTYPE svg PUBLIC "-//W3C//DTD SVG 20010904//EN"
 "http://www.w3.org/TR/2001/REC-SVG-20010904/DTD/svg10.dtd">
<svg version="1.0" xmlns="http://www.w3.org/2000/svg"
 width="672.000000pt" height="672.000000pt" viewBox="0 0 672.000000 672.000000"
 preserveAspectRatio="xMidYMid meet">
<metadata>
Created by potrace 1.11, written by Peter Selinger 2001-2013
</metadata>
<g transform="translate(0.000000,672.000000) scale(0.100000,-0.100000)"
fill="#000000" stroke="none">
<path d="M0 3360 l0 -3360 3360 0 3360 0 0 3360 0 3360 -3360 0 -3360 0 0
-3360z m3540 2835 c367 -71 641 -311 735 -645 24 -85 25 -267 2 -362 -45 -182
-159 -337 -340 -460 l-60 -41 79 -41 c44 -22 95 -52 114 -65 182 -128 325
-328 381 -536 17 -62 22 -112 24 -225 l2 -145 72 -73 c212 -215 317 -525 282
-831 -7 -57 -26 -151 -42 -209 -35 -123 -144 -354 -241 -508 -148 -236 -1080
-1614 -1091 -1614 -7 0 -69 38 -139 83 l-127 82 443 670 c244 369 442 672 440
673 -1 2 -42 -7 -91 -19 -74 -20 -112 -23 -243 -23 -172 1 -248 16 -375 73
l-68 31 -86 -35 c-150 -60 -206 -69 -401 -69 -151 0 -187 3 -260 23 -369 99
-637 384 -722 765 -16 76 -19 116 -15 241 5 168 27 272 92 437 67 168 155 313
536 882 l375 561 255 1 c199 1 272 5 338 19 210 43 380 142 465 268 93 141
103 335 26 488 -28 54 -99 134 -160 180 -109 82 -232 120 -390 120 -274 0
-461 -137 -595 -434 l-39 -87 -167 0 -168 0 20 71 c57 205 142 361 269 489 93
95 139 129 245 183 141 71 247 95 425 96 72 1 157 -5 200 -14z"/>
<path d="M3109 4660 c-42 -63 -180 -272 -308 -464 -127 -192 -230 -351 -228
-352 1 -2 36 7 77 18 63 18 103 22 250 22 194 1 270 -13 391 -74 l59 -30 38
18 c194 98 480 126 702 68 30 -8 57 -12 59 -10 11 11 -36 166 -73 238 -31 61
-61 102 -126 166 -143 143 -295 203 -606 237 l-153 17 -3 130 -3 131 -76 -115z"/>
<path d="M2750 3605 c-8 -2 -36 -7 -62 -10 -34 -4 -48 -11 -48 -22 0 -55 171
-323 210 -331 10 -1 22 15 34 45 28 68 95 178 140 230 21 24 36 46 33 49 -22
22 -258 52 -307 39z"/>
<path d="M3785 3574 c-11 -2 -45 -6 -75 -9 -83 -9 -89 -16 -52 -62 42 -53 106
-175 127 -243 10 -30 21 -59 26 -64 10 -12 67 31 140 105 60 60 154 202 145
218 -15 24 -247 65 -311 55z"/>
<path d="M2286 3352 c-106 -131 -156 -272 -156 -442 0 -198 60 -341 205 -485
144 -144 287 -205 481 -205 78 0 190 14 202 25 2 2 -13 25 -33 52 -53 69 -122
215 -146 308 -11 44 -23 122 -26 174 -3 51 -11 97 -17 102 -6 5 -47 35 -91 67
-131 96 -231 216 -303 365 -23 47 -42 90 -42 96 0 24 -22 8 -74 -57z"/>
<path d="M3282 3317 c-56 -67 -130 -213 -115 -228 12 -12 267 -25 306 -15 31
7 29 19 -19 124 -37 81 -99 172 -117 171 -7 0 -31 -24 -55 -52z"/>
<path d="M4334 3289 c-83 -161 -266 -333 -445 -420 -46 -22 -47 -22 -53 -83
-21 -184 -96 -363 -218 -518 -15 -20 -24 -39 -19 -42 26 -17 148 -36 227 -36
273 0 514 155 629 405 47 101 60 165 59 290 -1 120 -18 203 -61 289 -30 62
-85 146 -95 146 -4 0 -15 -14 -24 -31z"/>
<path d="M3140 2749 c0 -61 78 -229 139 -299 l31 -35 31 35 c69 78 131 191
154 282 l6 23 -114 -3 c-63 -2 -144 1 -181 6 -59 8 -66 7 -66 -9z"/>
</g>
</svg>
